<svg xmlns="http://www.w3.org/2000/svg" width="32" height="32" viewBox="0 0 32 32">
  <path d="M 2.731,4.000 3.615,3.080 3.692,3.080 3.923,2.840 4.000,2.840 4.154,2.680 4.231,2.680 4.615,2.360 4.692,2.360 4.769,2.280 4.846,2.280 5.231,2.040 5.385,2.040 5.615,1.880 5.769,1.880 5.846,1.800 6.000,1.800 6.077,1.720 6.385,1.720 6.462,1.640 6.692,1.640 6.769,1.560 7.231,1.560 7.308,1.480 11.846,1.480 11.923,1.400 23.769,1.400 23.846,1.480 24.846,1.480 24.923,1.560 25.308,1.560 25.385,1.640 25.615,1.640 25.692,1.720 25.923,1.720 26.000,1.800 26.154,1.800 26.231,1.880 26.385,1.880 26.615,2.040 26.769,2.040 26.846,2.120 26.923,2.120 27.000,2.200 27.077,2.200 27.154,2.280 27.231,2.280 27.308,2.360 27.538,2.440 27.692,2.600 27.923,2.680 28.154,2.920 28.231,2.920 28.462,3.160 28.538,3.160 29.346,4.000 29.346,4.080 29.577,4.320 29.577,4.400 29.808,4.640 29.885,4.880 30.038,5.040 30.038,5.120 30.115,5.200 30.115,5.280 30.192,5.360 30.192,5.440 30.423,5.840 30.423,6.000 30.500,6.080 30.500,6.240 30.577,6.320 30.577,6.480 30.654,6.560 30.654,6.720 30.731,6.800 30.731,7.120 30.808,7.200 30.808,7.600 30.885,7.680 30.885,20.320 30.962,20.400 30.962,20.640 30.885,20.720 30.885,21.040 30.962,21.120 30.962,22.960 30.885,23.040 30.885,24.000 30.808,24.080 30.808,24.480 30.731,24.560 30.731,24.880 30.654,24.960 30.654,25.200 30.577,25.280 30.577,25.440 30.500,25.520 30.500,25.680 30.423,25.760 30.423,25.920 30.346,26.000 30.346,26.080 30.269,26.160 30.269,26.240 30.192,26.320 30.192,26.400 30.115,26.480 30.115,26.560 30.038,26.640 29.962,26.880 29.808,27.040 29.731,27.280 29.577,27.440 29.577,27.520 29.346,27.760 29.346,27.840 28.308,28.920 28.231,28.920 28.000,29.160 27.923,29.160 27.769,29.320 27.538,29.400 27.385,29.560 27.308,29.560 26.923,29.800 26.769,29.800 26.538,29.960 26.385,29.960 26.308,30.040 26.154,30.040 26.077,30.120 25.846,30.120 25.769,30.200 25.538,30.200 25.462,30.280 25.231,30.280 25.154,30.360 24.462,30.360 24.385,30.440 7.615,30.440 7.538,30.360 6.923,30.360 6.846,30.280 6.615,30.280 6.538,30.200 6.231,30.200 6.154,30.120 6.000,30.120 5.923,30.040 5.769,30.040 5.692,29.960 5.538,29.960 5.462,29.880 5.385,29.880 5.154,29.720 5.000,29.720 4.846,29.560 4.769,29.560 4.692,29.480 4.462,29.400 4.308,29.240 4.231,29.240 4.077,29.080 4.000,29.080 3.692,28.760 3.615,28.760 2.885,28.000 2.885,27.920 2.577,27.600 2.577,27.520 2.269,27.120 2.192,26.880 2.038,26.720 2.038,26.640 1.808,26.240 1.808,26.080 1.654,25.840 1.654,25.680 1.500,25.440 1.500,25.200 1.423,25.120 1.423,24.960 1.346,24.880 1.346,24.560 1.269,24.480 1.269,24.080 1.192,24.000 1.192,23.120 1.115,23.040 1.115,8.320 1.192,8.240 1.192,7.600 1.269,7.520 1.269,7.200 1.346,7.120 1.346,6.800 1.423,6.720 1.423,6.560 1.500,6.480 1.500,6.320 1.577,6.240 1.577,6.080 1.731,5.840 1.731,5.680 1.808,5.600 1.808,5.520 1.885,5.440 1.885,5.360 1.962,5.280 2.038,5.040 2.192,4.880 2.269,4.640 2.731,4.080 Z M 7.000,25.080 7.615,25.080 7.769,24.920 7.846,24.920 8.154,24.600 8.231,24.600 8.692,24.120 8.769,24.120 9.077,23.800 9.154,23.800 9.615,23.320 9.692,23.320 10.000,23.000 10.077,23.000 10.538,22.520 10.615,22.520 10.923,22.200 11.000,22.200 11.308,21.880 11.385,21.880 11.462,21.800 21.692,21.800 21.769,21.720 22.231,21.720 22.308,21.640 22.538,21.640 22.615,21.560 22.846,21.560 23.077,21.400 23.231,21.400 23.308,21.320 23.538,21.240 23.692,21.080 23.769,21.080 23.923,20.920 24.000,20.920 24.885,20.000 24.885,19.920 25.192,19.520 25.192,19.440 25.346,19.200 25.346,19.040 25.500,18.800 25.500,18.560 25.577,18.480 25.577,18.240 25.654,18.160 25.654,17.120 25.731,17.040 25.731,16.800 25.654,16.720 25.654,10.960 25.577,10.880 25.577,10.640 25.500,10.560 25.500,10.400 25.346,10.160 25.346,10.000 25.192,9.840 25.192,9.760 25.115,9.680 25.115,9.600 24.962,9.440 24.962,9.360 24.077,8.440 24.000,8.440 23.846,8.280 23.769,8.280 23.692,8.200 23.615,8.200 23.231,7.960 23.077,7.960 22.846,7.800 22.615,7.800 22.538,7.720 22.154,7.720 22.077,7.640 10.154,7.640 10.077,7.720 9.615,7.720 9.538,7.800 9.308,7.800 9.231,7.880 9.077,7.880 9.000,7.960 8.846,7.960 8.769,8.040 8.692,8.040 8.615,8.120 8.385,8.200 8.000,8.520 7.923,8.520 7.192,9.280 7.192,9.360 6.962,9.600 6.962,9.680 6.885,9.760 6.885,9.840 6.654,10.240 6.654,10.400 6.577,10.480 6.577,10.640 6.500,10.720 6.500,11.040 6.423,11.120 6.423,24.000 6.500,24.080 6.500,24.320 6.577,24.400 6.577,24.560 6.654,24.640 6.654,24.720 Z" fill="#00a249" fill-rule="evenodd"/>
</svg>